<svg xmlns="http://www.w3.org/2000/svg" viewBox="0 0 64 64" role="img" aria-label="Travel Ranchi">
  <rect width="64" height="64" rx="14" fill="#0f766e"/>
  <path d="M14 22c0-5 4-9 9-9h18c5 0 9 4 9 9v19c0 3-2 5-5 5h-2l-3 5h-5l-3-5h-8l-3 5h-5l-3-5h-2c-3 0-5-2-5-5V22Z" fill="#ffffff"/>
  <path d="M20 20h24v12H20V20Z" fill="#dff7f2"/>
  <path d="M20 38h8M36 38h8" stroke="#0f766e" stroke-width="4" stroke-linecap="round"/>
  <path d="M25 29h14" stroke="#0f766e" stroke-width="4" stroke-linecap="round"/>
  <text x="32" y="59" fill="#ffffff" font-family="Arial, sans-serif" font-size="13" font-weight="700" text-anchor="middle">TR</text>
</svg>
